<?xml version="1.0" standalone="no"?>
<!DOCTYPE svg PUBLIC "-//W3C//DTD SVG 20010904//EN"
 "http://www.w3.org/TR/2001/REC-SVG-20010904/DTD/svg10.dtd">
<svg version="1.0" xmlns="http://www.w3.org/2000/svg"
 width="804.000000pt" height="718.000000pt" viewBox="0 0 804.000000 718.000000"
 preserveAspectRatio="xMidYMid meet">

<g transform="translate(0.000000,718.000000) scale(0.100000,-0.100000)"
fill="#000000" stroke="none">
<path d="M3914 7005 c-22 -54 -44 -145 -44 -186 0 -41 18 -99 30 -99 41 0 108
248 80 299 -17 33 -49 26 -66 -14z"/>
<path d="M3410 7005 c-26 -32 9 -281 46 -323 31 -37 58 -21 62 36 4 49 -24
256 -38 283 -13 23 -53 25 -70 4z"/>
<path d="M2892 6818 c-27 -27 -5 -133 47 -236 29 -57 56 -82 86 -82 37 0 33
40 -16 162 -62 156 -85 188 -117 156z"/>
<path d="M2460 6570 c-16 -29 7 -72 90 -168 91 -105 154 -146 175 -111 17 27
-125 240 -188 282 -35 23 -64 22 -77 -3z"/>
<path d="M3940 6380 c-217 -23 -445 -90 -725 -214 -250 -111 -383 -209 -479
-355 -129 -194 -328 -593 -401 -802 -85 -245 -103 -550 -49 -819 19 -93 79
-269 127 -372 36 -76 36 -78 14 -78 -35 0 -195 45 -282 80 -94 37 -179 87
-217 127 -92 96 -102 279 -23 440 28 56 54 89 120 151 47 44 85 84 85 91 0 6
-12 11 -27 11 -77 0 -208 -113 -267 -230 -46 -92 -59 -162 -54 -284 3 -92 7
-107 38 -164 72 -135 215 -218 520 -303 102 -28 193 -55 202 -60 10 -5 62 -69
116 -142 230 -306 454 -490 727 -596 124 -49 167 -56 383 -72 189 -13 309 -8
527 21 299 40 483 94 745 222 165 80 165 81 270 187 220 221 280 298 378 479
142 262 200 420 223 611 l12 103 81 56 c155 108 346 309 409 430 83 158 64
321 -50 443 -54 58 -85 74 -114 59 -28 -15 -24 -27 26 -86 67 -78 88 -132 83
-213 -6 -115 -71 -218 -241 -383 -69 -68 -195 -164 -203 -156 -1 2 -12 60 -24
128 -40 239 -105 471 -167 594 -14 28 -89 148 -167 266 -154 233 -142 220
-426 464 -115 98 -160 129 -303 207 -176 96 -238 119 -377 144 -104 19 -375
27 -490 15z m680 -232 c19 -11 109 -44 200 -73 165 -52 165 -52 188 -93 l23
-41 -88 -89 c-48 -49 -122 -113 -163 -141 -79 -55 -219 -130 -283 -151 -21 -6
-45 -23 -54 -36 -8 -13 -25 -24 -37 -24 -12 0 -30 -6 -40 -13 -19 -14 -19 -45
0 -229 5 -46 2 -66 -15 -101 -28 -57 -139 -177 -201 -217 -36 -23 -66 -56
-106 -117 -54 -81 -56 -86 -52 -139 6 -70 30 -96 146 -157 161 -85 202 -76
313 65 56 71 81 95 122 114 67 31 80 30 172 -6 143 -58 241 -58 353 -1 22 11
61 25 87 31 112 25 207 -46 207 -156 0 -37 -7 -51 -49 -100 -58 -67 -87 -83
-217 -119 -107 -29 -137 -29 -330 -4 -118 15 -310 2 -350 -25 -41 -26 -76
-114 -96 -240 -20 -122 -26 -141 -57 -168 -20 -18 -830 -198 -891 -198 -16 0
-43 7 -58 15 -16 8 -44 15 -61 15 -47 0 -265 47 -351 76 -161 53 -248 110
-391 253 -95 95 -106 114 -97 166 8 39 18 49 93 85 97 45 157 123 202 263 36
108 128 217 184 217 18 0 37 -43 37 -84 0 -19 8 -43 18 -55 l17 -22 35 26 c48
35 86 96 99 156 20 93 67 156 154 208 39 24 60 55 71 108 10 43 -7 71 -54 91
-21 9 -65 42 -97 73 -96 92 -216 190 -258 212 -30 15 -65 21 -140 25 -120 5
-150 18 -134 59 12 32 99 140 162 202 45 43 45 43 157 57 62 8 124 11 139 7
14 -3 52 -31 83 -61 86 -81 101 -81 324 6 98 39 212 80 251 92 l73 22 30 -26
c51 -42 150 -59 203 -35 14 6 45 46 72 93 80 136 134 182 230 196 106 16 188
11 225 -12z m-450 -2443 c0 -49 16 -90 46 -117 31 -27 171 -93 294 -137 177
-64 176 -63 201 -176 7 -33 33 -97 56 -144 33 -64 40 -87 31 -93 -33 -21 -164
-70 -273 -102 -450 -132 -830 -127 -1173 16 -40 17 -76 36 -79 44 -16 43 115
194 221 254 82 47 98 76 93 170 -3 51 -12 94 -30 135 -21 51 -23 61 -11 68 8
5 88 24 177 43 89 19 212 46 272 59 61 13 125 24 143 24 31 1 32 0 32 -44z"/>
<path d="M4173 5623 c-37 -7 -120 -105 -216 -255 -53 -83 -77 -130 -81 -162
-8 -54 7 -94 44 -115 23 -12 30 -12 64 4 21 10 49 35 62 55 20 29 34 39 63 44
29 4 55 22 111 76 65 63 72 72 65 97 -4 16 -10 71 -14 123 -10 134 -20 148
-98 133z"/>
<path d="M2137 6163 c-16 -15 -5 -53 20 -73 53 -42 173 -93 227 -98 30 -2 56
0 60 6 9 15 -92 103 -161 140 -57 30 -129 43 -146 25z"/>
<path d="M5460 6060 c-19 -19 -19 -22 -5 -49 13 -26 40 -52 179 -173 l31 -26
3 -137 c1 -74 8 -152 15 -173 10 -31 17 -37 44 -40 46 -5 60 24 69 136 3 51
10 95 14 97 9 5 107 -65 158 -112 20 -19 32 -41 32 -57 0 -36 34 -53 65 -32
24 16 79 80 110 129 24 37 7 57 -50 57 -35 0 -51 7 -93 41 -28 23 -65 60 -83
82 l-32 40 24 19 c122 95 141 125 101 161 -27 24 -60 21 -179 -17 l-106 -35
-107 55 c-116 59 -158 66 -190 34z"/>
<path d="M2040 5682 c-53 -9 -67 -49 -28 -76 45 -32 183 -9 196 31 8 26 -104
56 -168 45z"/>
<path d="M6515 3800 c-30 -12 -136 -108 -188 -168 -100 -118 -161 -287 -193
-537 -21 -165 -29 -540 -15 -698 13 -152 8 -174 -79 -332 -59 -106 -142 -200
-187 -211 -52 -13 -106 82 -127 227 -8 51 -11 100 -8 108 3 9 44 57 90 106
150 160 184 227 186 366 1 77 -2 89 -26 126 -14 22 -50 55 -79 74 -139 89
-287 11 -393 -204 -50 -102 -86 -233 -86 -313 0 -71 -15 -81 -73 -53 l-45 22
-4 166 c-3 133 -7 173 -21 201 -21 41 -55 68 -96 76 -43 9 -85 -38 -111 -124
-55 -178 -33 -271 86 -353 52 -35 52 -17 -2 -276 -35 -173 -50 -214 -89 -239
-22 -14 -27 -14 -60 2 -75 35 -143 154 -229 399 -88 251 -105 275 -199 275
-68 0 -82 -22 -81 -129 1 -104 24 -187 100 -356 l54 -121 -34 -87 c-43 -109
-77 -167 -117 -201 -40 -34 -56 -33 -63 7 -16 88 -46 392 -46 470 0 82 -2 90
-26 112 -36 34 -78 33 -111 -3 -49 -53 -64 -97 -70 -210 -6 -116 -26 -179 -77
-239 -34 -41 -56 -41 -100 -3 -53 47 -59 76 -47 248 12 185 54 362 85 362 6 0
28 -14 49 -31 46 -38 87 -37 101 3 13 37 -31 100 -91 129 -79 38 -183 5 -278
-89 -66 -65 -91 -114 -125 -245 -30 -112 -33 -119 -111 -222 -44 -59 -121
-168 -171 -243 -98 -148 -134 -192 -156 -192 -31 0 10 161 96 378 99 247 112
355 50 407 -39 33 -69 32 -177 -10 -95 -37 -108 -40 -129 -26 -10 6 -7 20 15
62 20 40 27 69 28 112 0 54 -3 61 -33 88 -27 24 -41 29 -86 29 -62 0 -96 -21
-126 -79 -34 -68 -36 -153 -4 -236 7 -16 -93 -86 -172 -121 -30 -13 -57 -31
-60 -39 -10 -26 16 -45 60 -45 49 0 103 24 187 81 l62 42 96 -12 c53 -7 99
-15 103 -17 4 -2 -9 -50 -27 -105 -50 -146 -75 -275 -75 -378 0 -78 3 -95 28
-142 35 -67 85 -99 155 -99 91 0 110 18 274 265 119 179 147 214 156 198 3 -5
22 -40 41 -78 77 -146 123 -179 251 -180 98 0 145 21 190 85 17 24 35 45 40
47 6 2 18 -20 28 -48 13 -35 38 -71 76 -110 53 -55 60 -59 103 -59 37 0 57 8
105 39 67 46 110 100 154 198 16 37 32 69 34 71 2 3 25 -14 50 -36 52 -46 104
-62 202 -62 59 0 76 4 114 28 55 35 99 85 121 137 10 22 34 121 54 220 19 99
39 183 43 188 7 7 95 -16 118 -31 7 -4 24 -48 38 -97 68 -235 207 -371 357
-351 124 17 239 119 324 288 18 36 38 69 42 72 5 3 31 -56 57 -132 26 -75 58
-157 72 -181 66 -115 175 -189 259 -177 55 7 125 37 172 72 97 74 192 319 192
495 0 96 -21 76 -85 -83 -32 -79 -70 -168 -85 -198 -32 -64 -102 -146 -131
-155 -25 -8 -54 16 -80 67 -51 99 -135 556 -127 687 4 60 9 75 68 171 108 177
176 350 222 562 18 84 22 137 22 283 1 199 -14 280 -56 310 -24 16 -109 20
-143 5z m90 -89 c16 -18 17 -40 12 -253 -5 -255 -16 -317 -88 -497 -34 -85
-104 -217 -121 -227 -33 -21 41 711 87 869 22 73 55 122 86 126 3 1 14 -8 24
-18z m-734 -940 c36 -36 39 -43 39 -94 0 -32 -9 -80 -20 -109 -22 -60 -99
-159 -155 -202 l-38 -29 8 88 c8 104 46 295 68 348 21 49 48 49 98 -2z m-677
-153 c3 -13 6 -71 6 -130 0 -89 -3 -108 -15 -108 -21 0 -53 35 -61 66 -15 58
22 194 52 194 6 0 14 -10 18 -22z m-2154 -306 c0 -29 -47 -95 -61 -87 -17 11
-10 84 11 105 25 25 50 16 50 -18z"/>
<path d="M1718 2976 c-65 -17 -124 -61 -155 -113 -21 -37 -24 -48 -15 -69 10
-20 19 -24 51 -24 25 0 45 6 53 16 50 62 65 72 122 79 71 9 159 0 228 -24 84
-29 218 -100 218 -115 0 -8 -25 -128 -56 -268 -84 -381 -105 -518 -111 -708
-8 -253 18 -364 116 -488 36 -45 46 -52 76 -52 29 0 40 7 66 43 l31 42 -7 200
c-5 129 -3 241 4 316 11 110 142 783 155 796 3 3 32 -6 63 -20 87 -39 175 -58
308 -68 138 -10 205 -4 257 22 36 18 88 75 88 96 0 6 -78 23 -172 38 -172 27
-349 72 -463 118 -33 14 -110 45 -170 70 -126 51 -248 90 -354 112 -87 18
-267 19 -333 1z"/>
<path d="M5465 1351 c-155 -39 -170 -62 -162 -256 6 -137 63 -448 92 -504 28
-55 84 -58 280 -14 106 23 125 36 125 85 0 55 -61 70 -175 43 -88 -21 -104
-20 -116 13 -6 15 -20 69 -31 121 -16 72 -18 95 -8 101 7 4 53 13 104 20 50 6
101 18 114 26 27 18 29 55 2 79 -20 18 -42 18 -196 -1 -48 -6 -51 -5 -57 17
-4 13 -7 47 -7 75 l0 52 49 21 c27 11 67 21 89 21 82 0 127 34 103 79 -12 22
-61 41 -105 40 -17 0 -62 -8 -101 -18z"/>
<path d="M4959 1250 c-8 -5 -46 -74 -84 -155 -38 -80 -71 -145 -75 -145 -3 0
-37 46 -75 101 -83 121 -118 146 -162 112 -40 -29 -49 -73 -74 -352 -21 -237
-22 -250 -5 -276 9 -14 24 -29 32 -32 22 -8 62 5 73 26 6 10 15 87 21 172 12
173 19 229 28 229 4 0 27 -27 51 -60 48 -67 95 -110 117 -110 43 0 73 32 122
127 59 115 48 124 112 -103 23 -83 50 -165 60 -182 24 -39 61 -50 95 -28 32
21 32 51 1 143 -13 39 -48 167 -77 284 -40 164 -58 219 -75 236 -24 24 -58 29
-85 13z"/>
<path d="M6123 1155 c-63 -27 -85 -128 -38 -179 20 -21 33 -26 74 -26 43 0 55
5 85 34 29 27 36 41 36 72 0 46 -20 78 -60 99 -35 18 -55 18 -97 0z"/>
<path d="M4033 1123 c-39 -8 -48 -28 -35 -84 7 -28 12 -74 12 -102 0 -47 30
-337 46 -446 9 -58 33 -81 87 -81 50 0 91 19 95 44 2 10 -6 32 -19 49 -19 26
-27 67 -54 275 -26 194 -30 253 -22 285 9 34 8 42 -8 53 -18 13 -56 16 -102 7z"/>
<path d="M3630 1114 c-14 -2 -115 -16 -225 -30 -110 -14 -215 -32 -232 -40
-37 -15 -42 -37 -17 -72 15 -22 21 -23 147 -21 l132 1 7 -48 c4 -27 16 -150
28 -273 22 -238 32 -276 78 -288 51 -12 99 38 87 90 -3 12 -12 94 -20 182 -9
88 -22 202 -31 252 -8 51 -13 96 -10 101 3 5 31 14 63 21 86 19 113 36 113 72
0 39 -55 64 -120 53z"/>
<path d="M2749 722 c-65 -8 -108 -106 -75 -170 25 -48 79 -61 140 -34 126 56
73 222 -65 204z"/>
</g>
</svg>
